<svg xmlns="http://www.w3.org/2000/svg" viewBox="0 0 26 26">
  <path d="M7.972656 22.386719C9.296875 20.839844 10.101563 19.265625 8.777344 17.738281L7.980469 16.824219C7.398438 16.15625 4.6875 14.914063 10.214844 10.113281C15.730469 5.3125 16.589844 8.167969 17.164063 8.839844L17.964844 9.757813C19.289063 11.277344 20.957031 10.703125 22.675781 9.605469L23.714844 8.945313C25.425781 7.84375 26.550781 6.644531 25.230469 5.117188L24.507813 4.296875C24.019531 3.621094 22.421875 1.738281 19.390625 1.28125C15.753906 0.730469 11.585938 2.464844 7.015625 6.441406C2.441406 10.410156 0.144531 14.296875 0.183594 17.980469C0.21875 21.039063 1.859375 22.886719 2.457031 23.464844L3.179688 24.292969C4.5 25.8125 5.847656 24.867188 7.171875 23.320313Z" fill="#FFFFFF" />
</svg>