<svg xmlns="http://www.w3.org/2000/svg" viewBox="0 0 100 100">
  <path d="M57.328125 23.859375C50.551125 23.859375 44.860297 28.540984 43.279297 34.833984C41.569297 28.729984 35.971125 24.234375 29.328125 24.234375C21.333125 24.234375 14.828125 30.739375 14.828125 38.734375C14.828125 40.095375 15.030813 41.408203 15.382812 42.658203C13.886812 44.213203 12.953125 46.313719 12.953125 48.636719L12.953125 67.332031C12.953125 72.103031 16.833516 75.984375 21.603516 75.984375L64.300781 75.984375C68.793781 75.984375 72.494156 72.54225 72.910156 68.15625L82.693359 70.552734C82.942359 70.613734 83.192359 70.644531 83.443359 70.644531C84.159359 70.644531 84.865984 70.399547 85.458984 69.935547C86.394984 69.201547 86.953125 67.997844 86.953125 66.714844L86.953125 53.007812C86.953125 51.724812 86.393984 50.521109 85.458984 49.787109C84.657984 49.159109 83.651359 48.932922 82.693359 49.169922L72.953125 51.556641L72.953125 48.636719C72.953125 46.563719 72.207328 44.669688 70.986328 43.179688C71.521328 41.668687 71.828125 40.051375 71.828125 38.359375C71.828125 30.364375 65.323125 23.859375 57.328125 23.859375 z M 57.328125 25.859375C64.221125 25.859375 69.828125 31.466375 69.828125 38.359375C69.828125 45.252375 64.221125 50.859375 57.328125 50.859375C50.435125 50.859375 44.828125 45.252375 44.828125 38.359375C44.828125 31.466375 50.435125 25.859375 57.328125 25.859375 z M 29.328125 26.234375C36.221125 26.234375 41.828125 31.841375 41.828125 38.734375C41.828125 45.627375 36.221125 51.234375 29.328125 51.234375C22.435125 51.234375 16.828125 45.627375 16.828125 38.734375C16.828125 31.841375 22.435125 26.234375 29.328125 26.234375 z M 29.328125 27.734375C27.122125 27.734375 25.328125 29.528375 25.328125 31.734375C25.328125 33.940375 27.122125 35.734375 29.328125 35.734375C31.534125 35.734375 33.328125 33.940375 33.328125 31.734375C33.328125 29.528375 31.534125 27.734375 29.328125 27.734375 z M 57.328125 27.859375C55.122125 27.859375 53.328125 29.653375 53.328125 31.859375C53.328125 34.065375 55.122125 35.859375 57.328125 35.859375C59.534125 35.859375 61.328125 34.065375 61.328125 31.859375C61.328125 29.653375 59.534125 27.859375 57.328125 27.859375 z M 29.328125 28.734375C30.982125 28.734375 32.328125 30.080375 32.328125 31.734375C32.328125 33.388375 30.982125 34.734375 29.328125 34.734375C27.674125 34.734375 26.328125 33.388375 26.328125 31.734375C26.328125 30.080375 27.673125 28.734375 29.328125 28.734375 z M 57.328125 28.859375C58.982125 28.859375 60.328125 30.205375 60.328125 31.859375C60.328125 33.513375 58.982125 34.859375 57.328125 34.859375C55.674125 34.859375 54.328125 33.513375 54.328125 31.859375C54.328125 30.205375 55.673125 28.859375 57.328125 28.859375 z M 50.828125 34.359375C48.622125 34.359375 46.828125 36.153375 46.828125 38.359375C46.828125 40.565375 48.622125 42.359375 50.828125 42.359375C53.034125 42.359375 54.828125 40.565375 54.828125 38.359375C54.828125 36.153375 53.034125 34.359375 50.828125 34.359375 z M 63.828125 34.359375C61.622125 34.359375 59.828125 36.154375 59.828125 38.359375C59.828125 40.565375 61.622125 42.359375 63.828125 42.359375C66.034125 42.359375 67.828125 40.565375 67.828125 38.359375C67.828125 36.153375 66.034125 34.359375 63.828125 34.359375 z M 22.828125 34.734375C20.622125 34.734375 18.828125 36.528375 18.828125 38.734375C18.828125 40.940375 20.622125 42.734375 22.828125 42.734375C25.034125 42.734375 26.828125 40.940375 26.828125 38.734375C26.828125 36.528375 25.034125 34.734375 22.828125 34.734375 z M 35.828125 34.734375C33.622125 34.734375 31.828125 36.529375 31.828125 38.734375C31.828125 40.940375 33.622125 42.734375 35.828125 42.734375C38.034125 42.734375 39.828125 40.940375 39.828125 38.734375C39.828125 36.528375 38.034125 34.734375 35.828125 34.734375 z M 50.828125 35.359375C52.482125 35.359375 53.828125 36.705375 53.828125 38.359375C53.828125 40.013375 52.482125 41.359375 50.828125 41.359375C49.174125 41.359375 47.828125 40.014375 47.828125 38.359375C47.828125 36.705375 49.174125 35.359375 50.828125 35.359375 z M 63.828125 35.359375C65.482125 35.359375 66.828125 36.705375 66.828125 38.359375C66.828125 40.013375 65.482125 41.359375 63.828125 41.359375C62.174125 41.359375 60.828125 40.013375 60.828125 38.359375C60.828125 36.705375 62.173125 35.359375 63.828125 35.359375 z M 22.828125 35.734375C24.482125 35.734375 25.828125 37.080375 25.828125 38.734375C25.828125 40.388375 24.482125 41.734375 22.828125 41.734375C21.174125 41.734375 19.828125 40.389375 19.828125 38.734375C19.828125 37.080375 21.174125 35.734375 22.828125 35.734375 z M 35.828125 35.734375C37.482125 35.734375 38.828125 37.080375 38.828125 38.734375C38.828125 40.388375 37.482125 41.734375 35.828125 41.734375C34.174125 41.734375 32.828125 40.388375 32.828125 38.734375C32.828125 37.080375 34.173125 35.734375 35.828125 35.734375 z M 57.328125 36.859375C56.501125 36.859375 55.828125 37.532375 55.828125 38.359375C55.828125 39.186375 56.501125 39.859375 57.328125 39.859375C58.155125 39.859375 58.828125 39.186375 58.828125 38.359375C58.828125 37.532375 58.155125 36.859375 57.328125 36.859375 z M 29.328125 37.234375C28.501125 37.234375 27.828125 37.907375 27.828125 38.734375C27.828125 39.561375 28.501125 40.234375 29.328125 40.234375C30.155125 40.234375 30.828125 39.561375 30.828125 38.734375C30.828125 37.907375 30.155125 37.234375 29.328125 37.234375 z M 57.328125 37.859375C57.603125 37.859375 57.828125 38.083375 57.828125 38.359375C57.828125 38.635375 57.603125 38.859375 57.328125 38.859375C57.053125 38.859375 56.828125 38.635375 56.828125 38.359375C56.828125 38.083375 57.053125 37.859375 57.328125 37.859375 z M 29.328125 38.234375C29.603125 38.234375 29.828125 38.458375 29.828125 38.734375C29.828125 39.010375 29.603125 39.234375 29.328125 39.234375C29.053125 39.234375 28.828125 39.010375 28.828125 38.734375C28.828125 38.458375 29.053125 38.234375 29.328125 38.234375 z M 57.328125 40.859375C55.122125 40.859375 53.328125 42.653375 53.328125 44.859375C53.328125 47.065375 55.122125 48.859375 57.328125 48.859375C59.534125 48.859375 61.328125 47.065375 61.328125 44.859375C61.328125 42.653375 59.534125 40.859375 57.328125 40.859375 z M 29.328125 41.734375C27.122125 41.734375 25.328125 43.528375 25.328125 45.734375C25.328125 47.940375 27.122125 49.734375 29.328125 49.734375C31.534125 49.734375 33.328125 47.940375 33.328125 45.734375C33.328125 43.528375 31.534125 41.734375 29.328125 41.734375 z M 57.328125 41.859375C58.982125 41.859375 60.328125 43.205375 60.328125 44.859375C60.328125 46.513375 58.982125 47.859375 57.328125 47.859375C55.674125 47.859375 54.328125 46.513375 54.328125 44.859375C54.328125 43.205375 55.674125 41.859375 57.328125 41.859375 z M 43.375 42.259766C45.085 48.363766 50.683172 52.859375 57.326172 52.859375C62.799172 52.859375 67.573016 49.809312 70.041016 45.320312C70.610016 46.299312 70.951172 47.423766 70.951172 48.634766L70.951172 52.828125L70.951172 63.982422L14.951172 63.982422L14.951172 48.636719C14.952172 47.212719 15.421547 45.905266 16.185547 44.822266C18.492547 49.780266 23.508172 53.234375 29.326172 53.234375C36.103172 53.234375 41.794 48.552766 43.375 42.259766 z M 29.328125 42.734375C30.982125 42.734375 32.328125 44.080375 32.328125 45.734375C32.328125 47.388375 30.982125 48.734375 29.328125 48.734375C27.674125 48.734375 26.328125 47.388375 26.328125 45.734375C26.328125 44.080375 27.674125 42.734375 29.328125 42.734375 z M 83.5 51.076172C83.809375 51.088922 84.055859 51.227375 84.224609 51.359375C84.680609 51.717375 84.953125 52.334813 84.953125 53.007812L84.953125 63.984375L84.453125 63.984375C84.177125 63.984375 83.953125 64.208375 83.953125 64.484375C83.953125 64.760375 84.177125 64.984375 84.453125 64.984375L84.953125 64.984375L84.953125 66.712891C84.952125 67.386891 84.680609 68.001375 84.224609 68.359375C84.000609 68.536375 83.629922 68.724375 83.169922 68.609375L72.953125 66.105469L72.953125 64.984375L80.453125 64.984375C80.729125 64.984375 80.953125 64.760375 80.953125 64.484375C80.953125 64.208375 80.729125 63.984375 80.453125 63.984375L72.953125 63.984375L72.953125 53.613281L83.169922 51.111328C83.286172 51.082828 83.396875 51.071922 83.5 51.076172 z M 82.451172 63.986328C82.386172 63.986328 82.321719 63.998437 82.261719 64.023438C82.201719 64.043437 82.141562 64.084766 82.101562 64.134766C82.001563 64.224766 81.953125 64.354375 81.953125 64.484375C81.953125 64.614375 82.002562 64.743984 82.101562 64.833984C82.141563 64.883984 82.202719 64.923359 82.261719 64.943359C82.322719 64.973359 82.391172 64.984375 82.451172 64.984375C82.511172 64.984375 82.581625 64.973359 82.640625 64.943359C82.701625 64.923359 82.760781 64.883984 82.800781 64.833984C82.901781 64.743984 82.951172 64.614375 82.951172 64.484375C82.951172 64.354375 82.900781 64.224766 82.800781 64.134766C82.761781 64.084766 82.703578 64.043437 82.642578 64.023438C82.582578 63.998438 82.516172 63.986328 82.451172 63.986328 z M 14.953125 64.984375L70.953125 64.984375L70.953125 66.890625L70.953125 67.332031C70.953125 71.000031 67.970734 73.984375 64.302734 73.984375L21.603516 73.984375C17.935516 73.984375 14.953125 71.000031 14.953125 67.332031L14.953125 64.984375 z M 19.953125 66.984375C18.850125 66.984375 17.953125 67.881375 17.953125 68.984375C17.953125 70.087375 18.850125 70.984375 19.953125 70.984375C21.056125 70.984375 21.953125 70.087375 21.953125 68.984375C21.953125 67.881375 21.055125 66.984375 19.953125 66.984375 z M 19.953125 67.984375C20.505125 67.984375 20.953125 68.433375 20.953125 68.984375C20.953125 69.535375 20.505125 69.984375 19.953125 69.984375C19.401125 69.984375 18.953125 69.535375 18.953125 68.984375C18.953125 68.433375 19.401125 67.984375 19.953125 67.984375 z" fill="#FFA717" />
</svg>