<svg xmlns="http://www.w3.org/2000/svg" width="72" height="65" viewBox="0 0 72 65">
  <path id="marketing" d="M39,8v2H6a2.015,2.015,0,0,0-2,2v4a2.015,2.015,0,0,0,2,2H7V53a2.015,2.015,0,0,0-2,2v3a2.015,2.015,0,0,0,2,2H39v.434L26.822,69.178A2,2,0,1,0,28,71q0-.1-.012-.2L39,62.9V66h2V62.988l11.01,7.824Q52,70.906,52,71a2.009,2.009,0,1,0,1.17-1.816L41,60.537V60H73a2.015,2.015,0,0,0,2-2V55a2.015,2.015,0,0,0-2-2V18h1a2.015,2.015,0,0,0,2-2V12a2.015,2.015,0,0,0-2-2H41V8ZM6,12H74v4H71V55h2v3H7V55H9V16H6Zm6,4a1,1,0,1,0,1,1A1,1,0,0,0,12,16Zm4,0a1,1,0,1,0,1,1A1,1,0,0,0,16,16Zm4,0a1,1,0,1,0,1,1A1,1,0,0,0,20,16Zm4,0a1,1,0,1,0,1,1A1,1,0,0,0,24,16Zm4,0a1,1,0,1,0,1,1A1,1,0,0,0,28,16Zm4,0a1,1,0,1,0,1,1A1,1,0,0,0,32,16Zm4,0a1,1,0,1,0,1,1A1,1,0,0,0,36,16Zm4,0a1,1,0,1,0,1,1A1,1,0,0,0,40,16Zm4,0a1,1,0,1,0,1,1A1,1,0,0,0,44,16Zm4,0a1,1,0,1,0,1,1A1,1,0,0,0,48,16Zm4,0a1,1,0,1,0,1,1A1,1,0,0,0,52,16Zm4,0a1,1,0,1,0,1,1A1,1,0,0,0,56,16Zm4,0a1,1,0,1,0,1,1A1,1,0,0,0,60,16Zm4,0a1,1,0,1,0,1,1A1,1,0,0,0,64,16Zm4,0a1,1,0,1,0,1,1A1,1,0,0,0,68,16ZM48,22V47H45V30H35V47H32V37H22V47H18v2H62V47H58V22Zm2,2h6v4a1,1,0,0,0,0,2v4a1,1,0,0,0,0,2v4a1,1,0,0,0,0,2v4a1,1,0,0,0-1,1H51a1,1,0,0,0-1-1V42a1,1,0,0,0,0-2V36a1,1,0,0,0,0-2V30a1,1,0,0,0,0-2Zm3,1a1,1,0,1,0,1,1A1,1,0,0,0,53,25Zm0,6a1,1,0,1,0,1,1A1,1,0,0,0,53,31ZM37,32h6V47H37Zm16,5a1,1,0,1,0,1,1A1,1,0,0,0,53,37ZM25,39h4a1,1,0,0,0,1,1v4a1,1,0,0,0,0,2v1H24V46a1,1,0,0,0,0-2V40A1,1,0,0,0,25,39Zm2,2a1,1,0,1,0,1,1A1,1,0,0,0,27,41Zm26,2a1,1,0,1,0,1,1A1,1,0,0,0,53,43ZM12,53a1,1,0,1,0,1,1A1,1,0,0,0,12,53Zm4,0a1,1,0,1,0,1,1A1,1,0,0,0,16,53Zm4,0a1,1,0,1,0,1,1A1,1,0,0,0,20,53Zm4,0a1,1,0,1,0,1,1A1,1,0,0,0,24,53Zm4,0a1,1,0,1,0,1,1A1,1,0,0,0,28,53Zm4,0a1,1,0,1,0,1,1A1,1,0,0,0,32,53Zm4,0a1,1,0,1,0,1,1A1,1,0,0,0,36,53Zm4,0a1,1,0,1,0,1,1A1,1,0,0,0,40,53Zm4,0a1,1,0,1,0,1,1A1,1,0,0,0,44,53Zm4,0a1,1,0,1,0,1,1A1,1,0,0,0,48,53Zm4,0a1,1,0,1,0,1,1A1,1,0,0,0,52,53Zm4,0a1,1,0,1,0,1,1A1,1,0,0,0,56,53Zm4,0a1,1,0,1,0,1,1A1,1,0,0,0,60,53Zm4,0a1,1,0,1,0,1,1A1,1,0,0,0,64,53Zm4,0a1,1,0,1,0,1,1A1,1,0,0,0,68,53Z" transform="translate(-4 -8)" fill="#ffa717"/>
</svg>
